<svg width="640" height="360" viewBox="0 0 640 360" fill="none" xmlns="http://www.w3.org/2000/svg">
  <rect width="640" height="360" rx="28" fill="#ECFDF5"/>
  <rect x="44" y="42" width="552" height="276" rx="30" fill="#FFFFFF"/>
  <rect x="76" y="74" width="488" height="88" rx="22" fill="#06286B"/>
  <circle cx="126" cy="118" r="22" fill="#FF3D47"/>
  <rect x="170" y="96" width="180" height="16" rx="8" fill="white"/>
  <rect x="170" y="124" width="252" height="11" rx="5.5" fill="#BFD1F5"/>
  <rect x="86" y="202" width="130" height="74" rx="18" fill="#F1F5F9" stroke="#CBD5E1"/>
  <rect x="256" y="202" width="130" height="74" rx="18" fill="#F1F5F9" stroke="#CBD5E1"/>
  <rect x="426" y="202" width="130" height="74" rx="18" fill="#F1F5F9" stroke="#CBD5E1"/>
  <rect x="108" y="228" width="86" height="12" rx="6" fill="#06286B"/>
  <rect x="278" y="228" width="86" height="12" rx="6" fill="#06286B"/>
  <rect x="448" y="228" width="86" height="12" rx="6" fill="#06286B"/>
  <rect x="248" y="292" width="144" height="38" rx="12" fill="#FF3D47"/>
</svg>
